<?xml version="1.0" encoding="utf-8"?>
<!DOCTYPE svg PUBLIC "-//W3C//DTD SVG 1.0//EN" "http://www.w3.org/TR/2001/REC-SVG-20010904/DTD/svg10.dtd">
<svg version="1.0" xmlns="http://www.w3.org/2000/svg" width="1024px" height="1024px" viewBox="0 0 1024 1024" preserveAspectRatio="xMidYMid meet">
 <g fill="#4a6af0">
  <path d="M0 512 l0 -512 512 0 512 0 0 512 0 512 -512 0 -512 0 0 -512z m326.5 203 c48.4 -7.4 99.4 -38.1 132.7 -80 21.9 -27.5 37.2 -59.9 44.4 -93.8 7.4 -34.7 4 -77 -9.1 -115.3 -14.3 -41.4 -47.7 -83.8 -83.9 -106.3 -24.6 -15.4 -39.2 -22.4 -60.3 -29 -21.7 -6.8 -50.2 -9.6 -76.8 -7.6 -27.8 2.1 -43.7 6 -66.5 16.4 -25.6 11.7 -43.2 23.8 -63.3 43.5 -21 20.6 -31.3 35.1 -45.8 64.6 -13 26.5 -19.7 53.4 -20.6 83 -1 31.1 2.9 55.5 13.1 83.4 18.2 49.4 57 93.3 104.6 118.5 24.9 13.1 48.6 20.8 73 23.5 5.2 0.6 10.9 1.3 12.5 1.5 6.9 1 33 -0.4 46 -2.4z m339.6 -85.2 c3.3 -6.6 5.7 -12.4 5.2 -12.8 -0.4 -0.4 -3.5 -1.7 -6.8 -3 -3.3 -1.3 -9.3 -4.2 -13.2 -6.4 -6.7 -3.7 -7.3 -4.2 -7.3 -7.3 0 -1.7 1.2 -5.3 2.7 -7.8 2.3 -3.7 3.3 -4.5 5.7 -4.5 1.6 0 4.3 0.9 6.1 2 1.8 1.1 8.2 4.1 14.1 6.6 51.1 21.4 109.9 20.9 154.7 -1.2 8.8 -4.4 15.7 -5.7 15.7 -3.1 0 0.6 0.9 2.3 2 3.7 1.1 1.4 2 4.1 2 6.2 0 3.5 -0.3 3.9 -6.7 7.7 -3.8 2.2 -9.8 5.2 -13.5 6.6 -3.8 1.5 -6.8 2.9 -6.8 3.2 0 0.4 11.5 17 14.3 20.5 1.3 1.6 1.9 1.6 9 -1.2 19.1 -7.3 37.3 -17 57.7 -30.6 18.5 -12.4 16.7 -9.6 18.1 -27.8 3.9 -49.3 -13 -112.8 -44.8 -167.9 -4.4 -7.5 -5 -8.1 -10.8 -10.8 -10.2 -4.6 -28.4 -10.6 -45.2 -14.8 -23.5 -5.8 -20.8 -6.4 -25.6 5.7 -4 10 -4.1 10.2 -7.3 10.2 -1.8 0 -6.6 -0.7 -10.6 -1.6 -9.7 -2.1 -38.2 -2.1 -54.3 0 -15.6 2.1 -20.5 2.1 -20.5 0.1 0 -2.9 -6.2 -17.6 -7.6 -18.2 -1.9 -0.7 -28.4 7 -41.9 12.2 -6.1 2.3 -14.7 6.1 -19.2 8.3 l-8.1 4.1 -7.8 13.8 c-15.8 28.1 -25.3 50.6 -31.9 75.5 -7.2 27.7 -10.2 54.1 -9.1 80.3 0.9 20.8 1.1 21.6 6.7 25.9 13.5 10.2 46.1 27.6 64.9 34.6 4.7 1.7 9.4 3.5 10.5 3.9 1.1 0.5 2.4 0.6 2.8 0.4 0.4 -0.3 3.5 -5.9 6.8 -12.5z"/>
  <path d="M260.7 704.4 c-25.6 -3.9 -56.7 -16 -78.2 -30.3 -37.2 -24.7 -64.1 -57.2 -80.1 -96.8 -4.6 -11.5 -8 -24.5 -11 -41.5 -2.1 -12.1 -2.4 -17.3 -2.4 -36.5 0 -38.1 5 -60.8 20 -91 19 -38.3 44.3 -66.1 79.6 -87.6 22.5 -13.7 45.4 -21.8 71.2 -25.2 12.7 -1.7 44.3 -1.9 58 -0.4 29.5 3.2 55 12.2 83.5 29.5 14.1 8.5 22.4 15.3 36 29.4 24.1 24.9 39.6 50.4 49.1 81.1 8.1 26.3 8.8 32.2 8.3 68.2 -0.5 34.8 -0.9 38 -8.5 61.2 -7.9 24.1 -16.6 40.4 -33.3 62.5 -26.5 35.1 -63.5 61 -103.4 72.4 -18.2 5.2 -30.5 6.6 -56.3 6.5 -14.7 -0.1 -27.1 -0.6 -32.5 -1.5z m61.1 -31.3 c13.5 -2.8 24.2 -6.2 24.2 -7.6 0 -0.7 -4.1 -12.2 -9.1 -25.6 -5 -13.4 -12.9 -35.2 -17.5 -48.4 -4.7 -13.2 -10.1 -28.3 -12.1 -33.5 -2 -5.2 -5.3 -14.4 -7.5 -20.5 -2.1 -6 -4.1 -11.7 -4.4 -12.5 -0.3 -0.8 -3.4 7.7 -6.8 19 -5.8 19 -31.3 95.1 -38.6 115.4 -2.6 6.9 -3 9 -2 9.6 1.8 1.1 20 4.8 29 6 11 1.3 33.9 0.4 44.8 -1.9z m-119.5 -35.8 c-5.5 -15 -15.8 -42.1 -28.6 -74.8 -3.9 -9.9 -11.8 -32.2 -17.7 -49.5 -18.5 -54.3 -25.4 -74 -26.1 -74 -1.6 0 -7.8 22.6 -10 36.5 -1.6 10.1 -1.6 34.5 0 45 4.5 29.3 17.7 62.6 32.9 83 12.8 17.2 34.8 37.5 49.3 45.5 3 1.6 5.5 3 5.5 3 0.1 0 -2.3 -6.6 -5.3 -14.7z m213.4 -14.6 c13.8 -14.2 21.3 -24.7 29.7 -41.8 21.7 -43.7 26.2 -90.3 12.9 -131.9 l-3.7 -11.5 -0.7 11.5 c-0.7 12.6 -3.5 24.3 -9.9 42 -14.1 38.7 -18.7 51.9 -31 88 -7.6 22.3 -15.8 46.2 -18.3 53.3 l-4.6 12.7 7.8 -6 c4.3 -3.3 12.3 -10.6 17.8 -16.3z m-147.8 -90.7 c4.3 -14 9.1 -29.9 10.6 -35.2 l2.8 -9.7 -6.8 -19.3 c-3.7 -10.6 -9.6 -26 -13 -34.3 l-6.3 -15 -13.3 -0.8 c-11.8 -0.7 -13.6 -1 -15.1 -2.8 -2.2 -2.6 -2.4 -10.5 -0.4 -15.3 3 -7.3 6.8 -7.8 39.1 -5.1 13.1 1 25.1 1.3 44.5 0.8 14.7 -0.3 27.8 -0.3 29.3 0.1 4.9 1.2 6.7 4 6.7 10.4 0 4.5 -0.5 6.3 -2.4 8.7 -2.3 2.8 -2.9 3 -11.3 3.5 l-9 0.5 3.9 13.5 c3.6 12.3 11.7 37.3 36.9 113.5 4.9 14.9 10.9 31.9 13.3 37.9 l4.3 10.9 6.7 -19.4 c16.6 -48.1 21.7 -66.7 22.3 -81.5 1 -21 -3.7 -36.4 -19.7 -64.4 -6.9 -12 -9.2 -19.6 -9.8 -31.2 -0.4 -8.7 -0.2 -10.2 2.1 -15.1 2.7 -5.9 9.1 -12.7 14.4 -15.2 l3.4 -1.6 -4.3 -3.4 c-21.4 -16.3 -48.9 -28.7 -76.8 -34.6 -8.7 -1.9 -13.6 -2.3 -28.5 -2.2 -15.6 0 -19.7 0.3 -30.6 2.6 -29.8 6.2 -57.7 19.9 -81.7 40.2 -8.3 6.9 -24.2 23.8 -24.2 25.7 0 0.4 10.5 0.4 23.3 0.1 12.9 -0.3 24.4 -0.3 25.8 0 3.4 0.9 5.9 5.6 5.9 11.2 0 4 -0.5 5.2 -3.4 8.1 -3.3 3.3 -3.6 3.4 -12 3.4 -5.3 0 -8.6 0.4 -8.6 1 0 1.2 3.8 12.2 14 40.5 8.1 22.3 11.6 33 32.1 95.7 l14.2 43.7 6.9 -20.2 c3.8 -11.1 10.4 -31.7 14.7 -45.7z"/>
  <path d="M793.3 561.9 c-7.6 -2.9 -15.4 -10.4 -18.9 -18.1 -2.7 -5.9 -2.9 -7.1 -2.9 -18.8 0 -11.7 0.2 -12.9 2.9 -18.7 5.4 -11.9 16.9 -19.4 30.5 -20.1 18.4 -1 30.4 6.9 36.1 23.8 1.8 5.4 2.1 8.2 1.8 16 -0.3 8.2 -0.8 10.5 -3.7 16.8 -6.3 13.4 -16.6 20 -32.6 20.8 -6.4 0.3 -9 0 -13.2 -1.7z"/>
  <path d="M679.2 562 c-12.4 -2.6 -23.2 -11.2 -27.2 -21.6 -1.9 -4.8 -2.4 -7.9 -2.4 -16.4 -0.1 -10 0.1 -10.9 3.3 -17.4 5.9 -11.9 13.8 -18 26.9 -20.7 7.8 -1.6 18.6 0 24.8 3.6 8.6 5.1 14.8 15.2 16.7 27.5 2.6 17.2 -6.4 37.4 -19.3 42.9 -5.9 2.5 -16.3 3.5 -22.8 2.1z"/>
 </g>
 <g fill="#ffffff">
  <path d="M277.5 720.4 c-1.6 -0.2 -7.3 -0.9 -12.5 -1.5 -30.3 -3.4 -63.8 -16 -91.7 -34.5 -16.4 -10.9 -37.8 -30.2 -49.5 -44.7 -27.9 -34.6 -43.8 -71.6 -48.3 -112.6 -2.5 -22.2 -1.7 -52.8 1.9 -69.6 4.7 -22.6 9.2 -36 17.5 -53 14.5 -29.5 24.8 -44 45.8 -64.6 20.1 -19.7 37.7 -31.8 63.3 -43.5 23.3 -10.6 39 -14.4 68 -16.5 29.3 -2.1 59.1 0.8 81.3 7.7 21.1 6.6 35.7 13.6 60.3 29 29.5 18.3 58.3 51 74.9 84.9 12 24.3 20.1 56.9 22 88.5 0.9 14.6 -0.9 40.3 -3.9 54.2 -5.2 24.8 -16.1 51.8 -28.8 71.8 -19.7 30.8 -41.9 52.9 -73.5 73.4 -21.1 13.6 -50.5 24.9 -74.8 28.7 -13.2 2 -44.1 3.4 -52 2.3z m48.2 -19.4 c49.3 -8.4 92.8 -35.4 124.2 -77 16.7 -22.1 25.4 -38.4 33.3 -62.5 7.4 -22.6 8 -26.8 8.5 -58.2 0.6 -32.5 -0.3 -39.3 -8.3 -65.2 -6.8 -21.8 -14.8 -37.7 -29.6 -58.4 -8.2 -11.6 -29 -33.3 -39.1 -41.1 -16.4 -12.4 -41.4 -25.8 -59.1 -31.5 -23.1 -7.5 -40.4 -10.1 -66.3 -10.1 -37.3 0.1 -67.5 8.3 -97.7 26.7 -35.3 21.5 -60.6 49.3 -79.6 87.6 -14.6 29.4 -20 53.2 -20 88 0 40.1 8.6 71.6 28.5 104.8 16.2 27 37 48.4 65 67 21.5 14.3 52.6 26.4 78.2 30.3 14.3 2.3 47.6 2 62 -0.4z"/>
  <path d="M273.5 677.9 c-9.8 -1.2 -29.5 -5.5 -30.8 -6.8 -0.5 -0.5 0.8 -5.5 3.3 -12.2 8.1 -22 34.4 -100.7 41.6 -124.4 4 -13.2 7.3 -23.8 7.4 -23.5 0.2 1.8 11.6 34.5 15.3 44 2.4 6.3 7.8 21.4 12.1 33.5 4.2 12.1 12.5 35.1 18.5 51 l10.9 29 -8.3 2.7 c-15.2 5 -26.7 6.8 -45 7.3 -9.3 0.2 -20.6 -0.1 -25 -0.6z"/>
  <path d="M204 654.8 c-14.9 -8.5 -23.9 -15.5 -36.5 -28.2 -19.6 -19.7 -30.6 -37.1 -39.8 -62.6 -9.2 -25.3 -12 -41 -12.1 -66 0 -26.2 3.4 -43.7 13.4 -68.5 l1.2 -3 1.3 4 c0.7 2.2 6.1 17.7 12 34.5 5.9 16.8 13.8 39.7 17.5 51 3.7 11.3 10.3 29.7 14.7 41 21.7 55.7 39.6 103.1 39.1 103.6 -0.2 0.1 -5 -2.5 -10.8 -5.8z"/>
  <path d="M382 654.1 c0 -0.4 1.3 -3.7 2.9 -7.2 3.2 -7.1 14 -37.9 29.1 -82.4 5.4 -15.9 12.8 -37.3 16.5 -47.5 3.7 -10.2 8.4 -23.2 10.5 -29 2.1 -5.8 5.1 -15 6.7 -20.5 2.7 -9.6 2.8 -10.8 2.6 -29.4 l-0.1 -19.3 3.9 8.3 c17.9 38.2 19.6 85.7 4.8 132.3 -4.3 13.4 -16.4 37.4 -24 47.6 -8 10.9 -23.3 26.6 -33.4 34.5 -9.4 7.3 -19.5 13.8 -19.5 12.6z"/>
  <path d="M230.6 561.8 c-22.6 -69.4 -25.6 -78.1 -33.4 -99.8 -11.3 -31.3 -16.2 -45.7 -16.2 -47.4 0 -0.3 4.3 -0.6 9.6 -0.6 9.6 0 9.6 0 13 -3.4 1.9 -1.9 3.4 -4.2 3.4 -5.1 0 -2.9 -3.4 -7.5 -5.8 -8.2 -1.4 -0.3 -13.8 -0.2 -27.8 0.2 -14 0.4 -25.4 0.4 -25.4 0 0 -1.3 6.3 -9.8 12.6 -17 13.1 -15 35.1 -31.2 55.9 -41.1 14.6 -7 26.1 -10.9 41.4 -14.1 11.3 -2.4 14.7 -2.7 33.6 -2.7 18 0 22.5 0.3 31.5 2.3 14.2 3 32.3 9.1 45 15.2 16.7 8 44.9 27.7 39.7 27.9 -6.5 0.1 -17.6 9.3 -21.5 17.8 -2.1 4.6 -2.4 6.4 -2 12.1 0.7 8.7 3.8 17.7 9.8 28.1 15.6 27.3 20 41.1 20 63.2 0 13.6 -1.1 20.4 -6.1 37.7 -3.1 10.9 -20.2 62.5 -24 72.7 l-2.1 5.6 -6.3 -15.9 c-3.4 -8.8 -10.1 -27.6 -14.8 -41.9 -4.7 -14.2 -13.9 -42.3 -20.5 -62.4 -6.6 -20.1 -14.1 -43.5 -16.6 -52 -2.4 -8.5 -4.7 -16.2 -5 -17 -0.5 -1.3 0.8 -1.5 8.9 -1.2 l9.6 0.3 2.9 -3.1 c4.7 -5 3.8 -10.6 -2 -13 -2.5 -1 -8.8 -1.2 -28.8 -0.6 -20.2 0.5 -30.7 0.3 -48.9 -1.1 -17.8 -1.3 -23.8 -1.4 -25.7 -0.5 -5.4 2.4 -8.2 11 -4.9 14.9 1.6 2 3.2 2.3 15.2 3 l13.3 0.8 6.3 15 c3.4 8.3 9.5 24.3 13.5 35.7 l7.2 20.6 -4.5 15.9 c-7 24.1 -16.7 55.1 -26 82.6 l-8.3 24.7 -15.8 -48.2z"/>
  <path d="M655 645.4 c-19.5 -6.6 -42.5 -17.4 -60.4 -28.3 -16.4 -10 -20.9 -13.6 -21.8 -17.4 -1.6 -6.4 -2.1 -41.1 -0.9 -55.2 3.8 -44.9 15.7 -81.8 40.5 -125.8 l7.8 -13.8 8.1 -4.1 c15.7 -7.9 50.6 -19.7 63.3 -21.5 l4.1 -0.5 3.2 7.6 c1.7 4.1 3.4 8.9 3.7 10.6 0.4 1.6 1.1 3 1.6 3 0.5 0 6.7 -0.7 13.6 -1.6 17.2 -2.3 49.8 -2.2 60.1 0 4.1 0.9 7.5 1.5 7.7 1.4 0.1 -0.2 2 -4.8 4.2 -10.3 l4 -10 5.4 0.2 c10.8 0.4 51.1 11.9 67.3 19.2 5.8 2.7 6.4 3.3 10.8 10.8 33.5 58.2 49.6 122.3 44.6 177.6 -1.3 14 0.2 12 -17.9 24.1 -21.1 14.1 -43.8 25.8 -63.3 32.7 l-6.7 2.4 -2.5 -3 c-3.9 -4.8 -17.8 -25.5 -17.4 -25.9 0.2 -0.3 4 -1.8 8.4 -3.6 8.2 -3.2 21.5 -10.5 21.5 -11.8 0 -0.4 -0.9 -1.8 -2 -3.2 -1.1 -1.4 -2 -3.1 -2 -3.7 0 -1.7 0.3 -1.9 -9.7 3.1 -26.8 13.3 -57.8 18.8 -92.9 16.6 -18.3 -1.2 -30.5 -3.2 -45.5 -7.6 -11.8 -3.4 -30.7 -10.8 -36.3 -14.3 l-3.2 -2 -2.7 4.6 c-2.6 4.3 -2.7 4.6 -1 5.8 3.2 2.4 17.7 9.3 23.3 11.2 3 1 5.6 1.9 5.8 1.9 0.9 0.5 -16.1 32.4 -17.1 32.4 -0.7 -0.1 -3.2 -0.8 -5.7 -1.6z m162.7 -87.6 c16.6 -6.2 26.2 -27.4 20.3 -44.8 -6.8 -20.2 -25.2 -29 -43.2 -20.8 -7.9 3.6 -14 9.6 -17.4 17.1 -2.5 5.4 -2.9 7.4 -2.9 15.7 0 8.4 0.3 10.2 2.9 15.8 3.5 7.7 11.3 15.2 18.9 18.1 6.2 2.5 12.7 2.2 21.4 -1.1z m-118.4 -1 c11.7 -5 21.3 -24.8 18.7 -38.6 -1.3 -7.1 -4.9 -14.8 -9 -19.5 -6.8 -7.8 -18.4 -11.8 -27.6 -9.6 -12.4 3 -19.9 9.1 -25.5 20.5 -3 6 -3.4 7.7 -3.3 14.4 0.2 14.3 7.5 25.9 19.8 31.6 10.4 4.7 17.7 5 26.9 1.2z"/>
 </g>
</svg>